<svg width="19" height="16" viewBox="0 0 19 16" fill="none" xmlns="http://www.w3.org/2000/svg">
<path d="M16.6199 9.4375C16.5261 9.78125 16.2136 10 15.8699 10H6.71362L6.93237 11H15.3074C15.7761 11 16.1511 11.4688 16.0261 11.9375L15.8699 12.6875C16.4636 12.9688 16.8699 13.5625 16.8699 14.25C16.8699 15.2188 16.0574 16 15.1199 16C14.1511 16 13.3699 15.2188 13.3699 14.25C13.3699 13.7812 13.5574 13.3438 13.8699 13H7.33862C7.65112 13.3438 7.86987 13.7812 7.86987 14.25C7.86987 15.2188 7.05737 16 6.11987 16C5.15112 16 4.36987 15.2188 4.36987 14.25C4.36987 13.625 4.71362 13.0625 5.24487 12.75L3.02612 2H0.869873C0.432373 2 0.119873 1.6875 0.119873 1.25V0.75C0.119873 0.34375 0.432373 0 0.869873 0H4.05737C4.40112 0 4.71362 0.28125 4.80737 0.625L5.08862 2H17.3386C17.8386 2 18.1824 2.46875 18.0886 2.9375L16.6199 9.4375Z" fill="white"/>
</svg>
