<svg width="19" height="17" viewBox="0 0 19 17" fill="none" xmlns="http://www.w3.org/2000/svg">
<path d="M16.75 9.67554C16.6562 10.0193 16.3438 10.238 16 10.238H6.84375L7.0625 11.238H15.4375C15.9062 11.238 16.2812 11.7068 16.1562 12.1755L16 12.9255C16.5938 13.2068 17 13.8005 17 14.488C17 15.4568 16.1875 16.238 15.25 16.238C14.2812 16.238 13.5 15.4568 13.5 14.488C13.5 14.0193 13.6875 13.5818 14 13.238H7.46875C7.78125 13.5818 8 14.0193 8 14.488C8 15.4568 7.1875 16.238 6.25 16.238C5.28125 16.238 4.5 15.4568 4.5 14.488C4.5 13.863 4.84375 13.3005 5.375 12.988L3.15625 2.23804H1C0.5625 2.23804 0.25 1.92554 0.25 1.48804V0.988037C0.25 0.581787 0.5625 0.238037 1 0.238037H4.1875C4.53125 0.238037 4.84375 0.519287 4.9375 0.863037L5.21875 2.23804H17.4688C17.9688 2.23804 18.3125 2.70679 18.2188 3.17554L16.75 9.67554Z" fill="white"/>
</svg>
