<svg width="16" height="16" viewBox="0 0 16 16" fill="none" xmlns="http://www.w3.org/2000/svg">
<path d="M7.84985 0.25C12.0999 0.25 15.5999 3.75 15.5999 8C15.5999 12.2812 12.0999 15.75 7.84985 15.75C3.5686 15.75 0.0998535 12.2812 0.0998535 8C0.0998535 3.75 3.5686 0.25 7.84985 0.25ZM7.84985 3.6875C7.09985 3.6875 6.53735 4.28125 6.53735 5C6.53735 5.75 7.09985 6.3125 7.84985 6.3125C8.5686 6.3125 9.16235 5.75 9.16235 5C9.16235 4.28125 8.5686 3.6875 7.84985 3.6875ZM9.59985 11.625V10.875C9.59985 10.6875 9.41235 10.5 9.22485 10.5H8.84985V7.375C8.84985 7.1875 8.66235 7 8.47485 7H6.47485C6.2561 7 6.09985 7.1875 6.09985 7.375V8.125C6.09985 8.34375 6.2561 8.5 6.47485 8.5H6.84985V10.5H6.47485C6.2561 10.5 6.09985 10.6875 6.09985 10.875V11.625C6.09985 11.8438 6.2561 12 6.47485 12H9.22485C9.41235 12 9.59985 11.8438 9.59985 11.625Z" fill="white"/>
</svg>
